<svg width="183" height="149" viewBox="0 0 183 149" fill="none" xmlns="http://www.w3.org/2000/svg">
<circle cx="92" cy="86" r="63" fill="#FFE145"/>
<circle cx="91.5" cy="63.5" r="63" stroke="#B79C10"/>
<path d="M78.3479 93H70.758V68.7012C70.758 66.0579 70.8902 63.0182 71.1545 59.582C71.0223 59.7708 70.5314 60.3467 69.6818 61.3096C68.8511 62.2725 67.218 64 64.7824 66.4922L60.4777 61.791L71.4943 51.5957H78.3479V93ZM108.096 93H100.506V68.7012C100.506 66.0579 100.638 63.0182 100.902 59.582C100.77 59.7708 100.279 60.3467 99.4295 61.3096C98.5988 62.2725 96.9656 64 94.5301 66.4922L90.2254 61.791L101.242 51.5957H108.096V93Z" fill="#3F4255"/>
</svg>
